<mxfile host="Electron" modified="2024-02-04T21:05:36.254Z" agent="Mozilla/5.0 (Windows NT 10.0; Win64; x64) AppleWebKit/537.36 (KHTML, like Gecko) draw.io/23.0.2 Chrome/120.0.6099.109 Electron/28.1.0 Safari/537.36" etag="Ze2KaGuP5yiUdy7dmtjU" version="23.0.2" type="device">
  <diagram name="Page-1" id="PuLncYhw8mI1SkYyDU-w">
    <mxGraphModel dx="794" dy="511" grid="1" gridSize="10" guides="1" tooltips="1" connect="1" arrows="1" fold="1" page="1" pageScale="1" pageWidth="827" pageHeight="1169" math="0" shadow="0">
      <root>
        <mxCell id="0" />
        <mxCell id="1" parent="0" />
        <UserObject label="Depositor" type="externalEntity" source="" flow="" placeholders="1" id="D-dII7BmtqOwhJV6R9io-1">
          <mxCell style="shape=rectangle;whiteSpace=wrap;html=1;fillColor=#ffffff;strokeColor=#000000;align=center;verticalAlign=middle;fontColor=#232F3E;" vertex="1" parent="1">
            <mxGeometry x="48.05555555555556" width="75" height="35" as="geometry" />
          </mxCell>
        </UserObject>
        <UserObject label="Data Deposit" type="process" source="1" flow="Depositor" placeholders="1" id="D-dII7BmtqOwhJV6R9io-2">
          <mxCell style="shape=ellipse;perimeter=ellipsePerimeter;whiteSpace=wrap;html=1;fillColor=#ffffff;strokeColor=#000000;align=center;verticalAlign=middle;fontColor=#232F3E;" vertex="1" parent="1">
            <mxGeometry x="38.05555555555556" y="135" width="95" height="35" as="geometry" />
          </mxCell>
        </UserObject>
        <UserObject label="Dataset" type="dataStore" source="2" flow="Data Deposit" placeholders="1" id="D-dII7BmtqOwhJV6R9io-3">
          <mxCell style="html=1;dashed=0;whiteSpace=wrap;shape=partialRectangle;right=0;left=0;" vertex="1" parent="1">
            <mxGeometry y="270" width="65" height="35" as="geometry" />
          </mxCell>
        </UserObject>
        <UserObject label="Publication" type="dataStore" source="2" flow="Data Deposit" placeholders="1" id="D-dII7BmtqOwhJV6R9io-4">
          <mxCell style="html=1;dashed=0;whiteSpace=wrap;shape=partialRectangle;right=0;left=0;" vertex="1" parent="1">
            <mxGeometry x="95" y="270" width="85" height="35" as="geometry" />
          </mxCell>
        </UserObject>
        <UserObject label="Collaborator" type="externalEntity" source="" flow="" placeholders="1" id="D-dII7BmtqOwhJV6R9io-5">
          <mxCell style="shape=rectangle;whiteSpace=wrap;html=1;fillColor=#ffffff;strokeColor=#000000;align=center;verticalAlign=middle;fontColor=#232F3E;" vertex="1" parent="1">
            <mxGeometry x="255" width="95" height="35" as="geometry" />
          </mxCell>
        </UserObject>
        <UserObject label="Privileged Access" type="process" source="5" flow="Collaborator" undefined="3" placeholders="1" id="D-dII7BmtqOwhJV6R9io-6">
          <mxCell style="shape=ellipse;perimeter=ellipsePerimeter;whiteSpace=wrap;html=1;fillColor=#ffffff;strokeColor=#000000;align=center;verticalAlign=middle;fontColor=#232F3E;" vertex="1" parent="1">
            <mxGeometry x="240" y="135" width="125" height="35" as="geometry" />
          </mxCell>
        </UserObject>
        <UserObject label="Research Facility Manager" type="externalEntity" source="" flow="" placeholders="1" id="D-dII7BmtqOwhJV6R9io-7">
          <mxCell style="shape=rectangle;whiteSpace=wrap;html=1;fillColor=#ffffff;strokeColor=#000000;align=center;verticalAlign=middle;fontColor=#232F3E;" vertex="1" parent="1">
            <mxGeometry x="580" width="175" height="35" as="geometry" />
          </mxCell>
        </UserObject>
        <UserObject label="Facility Data Deposit" type="process" source="7" flow="Research Facility Manager" undefined="3" placeholders="1" id="D-dII7BmtqOwhJV6R9io-8">
          <mxCell style="shape=ellipse;perimeter=ellipsePerimeter;whiteSpace=wrap;html=1;fillColor=#ffffff;strokeColor=#000000;align=center;verticalAlign=middle;fontColor=#232F3E;" vertex="1" parent="1">
            <mxGeometry x="600" y="135" width="135" height="35" as="geometry" />
          </mxCell>
        </UserObject>
        <UserObject label="Developer" type="externalEntity" source="" flow="" placeholders="1" id="D-dII7BmtqOwhJV6R9io-9">
          <mxCell style="shape=rectangle;whiteSpace=wrap;html=1;fillColor=#ffffff;strokeColor=#000000;align=center;verticalAlign=middle;fontColor=#232F3E;" vertex="1" parent="1">
            <mxGeometry x="430" width="85" height="35" as="geometry" />
          </mxCell>
        </UserObject>
        <UserObject label="API Deposit" type="process" source="9" flow="Developer" undefined="3" placeholders="1" id="D-dII7BmtqOwhJV6R9io-10">
          <mxCell style="shape=ellipse;perimeter=ellipsePerimeter;whiteSpace=wrap;html=1;fillColor=#ffffff;strokeColor=#000000;align=center;verticalAlign=middle;fontColor=#232F3E;" vertex="1" parent="1">
            <mxGeometry x="425" y="135" width="95" height="35" as="geometry" />
          </mxCell>
        </UserObject>
        <UserObject label="Data Archive" type="dataStore" source="8" flow="Facility Data Deposit" undefined="API Deposit" placeholders="1" id="D-dII7BmtqOwhJV6R9io-11">
          <mxCell style="html=1;dashed=0;whiteSpace=wrap;shape=partialRectangle;right=0;left=0;" vertex="1" parent="1">
            <mxGeometry x="620" y="270" width="95" height="35" as="geometry" />
          </mxCell>
        </UserObject>
        <mxCell id="D-dII7BmtqOwhJV6R9io-12" value="Depositor" style="endArrow=blockThin;endFill=1;fontSize=11;orthogonal=1;noEdgeStyle=1;" edge="1" parent="1" source="D-dII7BmtqOwhJV6R9io-1" target="D-dII7BmtqOwhJV6R9io-2">
          <mxGeometry relative="1" as="geometry">
            <Array as="points">
              <mxPoint x="85.55555555555556" y="47" />
              <mxPoint x="85.55555555555554" y="123" />
            </Array>
          </mxGeometry>
        </mxCell>
        <mxCell id="D-dII7BmtqOwhJV6R9io-13" value="Data Deposit" style="endArrow=blockThin;endFill=1;fontSize=11;orthogonal=1;noEdgeStyle=1;" edge="1" parent="1" source="D-dII7BmtqOwhJV6R9io-2" target="D-dII7BmtqOwhJV6R9io-3">
          <mxGeometry relative="1" as="geometry">
            <Array as="points">
              <mxPoint x="64.30555555555556" y="182" />
              <mxPoint x="32.5" y="258" />
            </Array>
          </mxGeometry>
        </mxCell>
        <mxCell id="D-dII7BmtqOwhJV6R9io-14" value="Data Deposit" style="endArrow=blockThin;endFill=1;fontSize=11;orthogonal=1;noEdgeStyle=1;" edge="1" parent="1" source="D-dII7BmtqOwhJV6R9io-2" target="D-dII7BmtqOwhJV6R9io-4">
          <mxGeometry relative="1" as="geometry">
            <Array as="points">
              <mxPoint x="106.80555555555554" y="182" />
              <mxPoint x="137.5" y="258" />
            </Array>
          </mxGeometry>
        </mxCell>
        <mxCell id="D-dII7BmtqOwhJV6R9io-15" value="Collaborator" style="endArrow=blockThin;endFill=1;fontSize=11;orthogonal=1;noEdgeStyle=1;" edge="1" parent="1" source="D-dII7BmtqOwhJV6R9io-5" target="D-dII7BmtqOwhJV6R9io-6">
          <mxGeometry relative="1" as="geometry">
            <Array as="points">
              <mxPoint x="302.5" y="47" />
              <mxPoint x="302.5" y="123" />
            </Array>
          </mxGeometry>
        </mxCell>
        <mxCell id="D-dII7BmtqOwhJV6R9io-16" value="Research Facility Manager" style="endArrow=blockThin;endFill=1;fontSize=11;orthogonal=1;noEdgeStyle=1;" edge="1" parent="1" source="D-dII7BmtqOwhJV6R9io-7" target="D-dII7BmtqOwhJV6R9io-8">
          <mxGeometry relative="1" as="geometry">
            <Array as="points">
              <mxPoint x="667.5" y="47" />
              <mxPoint x="667.5" y="123" />
            </Array>
          </mxGeometry>
        </mxCell>
        <mxCell id="D-dII7BmtqOwhJV6R9io-17" value="Developer" style="endArrow=blockThin;endFill=1;fontSize=11;orthogonal=1;noEdgeStyle=1;" edge="1" parent="1" source="D-dII7BmtqOwhJV6R9io-9" target="D-dII7BmtqOwhJV6R9io-10">
          <mxGeometry relative="1" as="geometry">
            <Array as="points">
              <mxPoint x="472.5" y="47" />
              <mxPoint x="472.5" y="123" />
            </Array>
          </mxGeometry>
        </mxCell>
        <mxCell id="D-dII7BmtqOwhJV6R9io-18" value="Facility Data Deposit" style="endArrow=blockThin;endFill=1;fontSize=11;orthogonal=1;noEdgeStyle=1;" edge="1" parent="1" source="D-dII7BmtqOwhJV6R9io-8" target="D-dII7BmtqOwhJV6R9io-11">
          <mxGeometry relative="1" as="geometry">
            <Array as="points">
              <mxPoint x="667.5" y="182" />
              <mxPoint x="667.5" y="258" />
            </Array>
          </mxGeometry>
        </mxCell>
      </root>
    </mxGraphModel>
  </diagram>
</mxfile>
